# xmcd
#
# Track frame offsets:
#	150
#	23586
#	43872
#	61285
#	88050
#	114458
#	132780
#	155144
#	183966
#	198331
#	214840
#	249800
#	267064
#	273301
#
# Disc length: 4049 seconds
#
# Revision: 0
# Processed by: cddbd v1.5.2PL0 Copyright (c) Steve Scherf et al.
# Submitted via: EasyCDDAExtractor 9.0.0.1
#
DISCID=be0fcf0e
DTITLE=Deep Purple - Torwar Warzaw 09-10-06 Disc 1
DYEAR=2006
DGENRE=Hard Rock
TTITLE0=Pictures Of Home
TTITLE1=Things I Never Said
TTITLE2=Into The Fire
TTITLE3=Strange Kind Of Woman
TTITLE4=Rapture Of The Deep
TTITLE5=Fireball
TTITLE6=Wrong Man
TTITLE7=Steve Morse Solo
TTITLE8=The Well Dressed Guitar
TTITLE9=When A Blind Man Cries
TTITLE10=Lazy
TTITLE11=Don Airey Solo Pt 1
TTITLE12=Don Airey Solo Pt 2
TTITLE13=Perfect Strangers
EXTD=
EXTT0=
EXTT1=
EXTT2=
EXTT3=
EXTT4=
EXTT5=
EXTT6=
EXTT7=
EXTT8=
EXTT9=
EXTT10=
EXTT11=
EXTT12=
EXTT13=
PLAYORDER=
